<svg width="350" height="150" viewBox="0 0 231 53" fill="none" xmlns="http://www.w3.org/2000/svg">
<path d="M76.666 42.456C74.7153 42.456 72.9927 42.1267 71.498 41.468C70.0033 40.784 68.8253 39.8213 67.964 38.58C67.1027 37.3133 66.6593 35.7807 66.634 33.982H71.764C71.8147 35.2233 72.258 36.2747 73.094 37.136C73.9553 37.972 75.1333 38.39 76.628 38.39C77.92 38.39 78.946 38.086 79.706 37.478C80.466 36.8447 80.846 36.0087 80.846 34.97C80.846 33.8807 80.504 33.032 79.82 32.424C79.1613 31.816 78.2747 31.322 77.16 30.942C76.0453 30.562 74.8547 30.1567 73.588 29.726C71.536 29.0167 69.9653 28.1047 68.876 26.99C67.812 25.8753 67.28 24.3933 67.28 22.544C67.2547 20.9733 67.622 19.6307 68.382 18.516C69.1673 17.376 70.2313 16.502 71.574 15.894C72.9167 15.2607 74.462 14.944 76.21 14.944C77.9833 14.944 79.5413 15.2607 80.884 15.894C82.252 16.5273 83.316 17.414 84.076 18.554C84.8613 19.694 85.2793 21.0493 85.33 22.62H80.124C80.0987 21.6827 79.7313 20.8593 79.022 20.15C78.338 19.4153 77.3753 19.048 76.134 19.048C75.07 19.0227 74.1707 19.2887 73.436 19.846C72.7267 20.378 72.372 21.1633 72.372 22.202C72.372 23.0887 72.6507 23.798 73.208 24.33C73.7653 24.8367 74.5253 25.2673 75.488 25.622C76.4507 25.9767 77.5527 26.3567 78.794 26.762C80.1113 27.218 81.3147 27.75 82.404 28.358C83.4933 28.966 84.3673 29.7767 85.026 30.79C85.6847 31.778 86.014 33.0573 86.014 34.628C86.014 36.0213 85.6593 37.3133 84.95 38.504C84.2407 39.6947 83.1893 40.6573 81.796 41.392C80.4027 42.1013 78.6927 42.456 76.666 42.456ZM99.3778 42.456C97.4525 42.456 95.7552 42.038 94.2858 41.202C92.8165 40.366 91.6512 39.2007 90.7898 37.706C89.9538 36.2113 89.5358 34.5013 89.5358 32.576C89.5358 30.6507 89.9538 28.9407 90.7898 27.446C91.6512 25.9513 92.8165 24.786 94.2858 23.95C95.7552 23.114 97.4525 22.696 99.3778 22.696C101.784 22.696 103.811 23.3293 105.458 24.596C107.104 25.8373 108.156 27.56 108.612 29.764H103.482C103.228 28.852 102.722 28.1427 101.962 27.636C101.227 27.104 100.353 26.838 99.3398 26.838C97.9972 26.838 96.8572 27.3447 95.9198 28.358C94.9825 29.3713 94.5138 30.7773 94.5138 32.576C94.5138 34.3747 94.9825 35.7807 95.9198 36.794C96.8572 37.8073 97.9972 38.314 99.3398 38.314C100.353 38.314 101.227 38.0607 101.962 37.554C102.722 37.0473 103.228 36.3253 103.482 35.388H108.612C108.156 37.516 107.104 39.226 105.458 40.518C103.811 41.81 101.784 42.456 99.3778 42.456ZM112.929 42V23.152H117.261L117.717 26.686C118.401 25.47 119.326 24.5073 120.491 23.798C121.682 23.0633 123.075 22.696 124.671 22.696V27.826H123.303C122.239 27.826 121.289 27.9907 120.453 28.32C119.617 28.6493 118.958 29.2193 118.477 30.03C118.021 30.8407 117.793 31.968 117.793 33.412V42H112.929ZM134.493 42.456C132.872 42.456 131.542 42.2027 130.503 41.696C129.465 41.164 128.692 40.4673 128.185 39.606C127.679 38.7447 127.425 37.7947 127.425 36.756C127.425 35.008 128.109 33.5893 129.477 32.5C130.845 31.4107 132.897 30.866 135.633 30.866H140.421V30.41C140.421 29.118 140.054 28.168 139.319 27.56C138.585 26.952 137.673 26.648 136.583 26.648C135.595 26.648 134.734 26.8887 133.999 27.37C133.265 27.826 132.809 28.51 132.631 29.422H127.881C128.008 28.054 128.464 26.8633 129.249 25.85C130.06 24.8367 131.099 24.064 132.365 23.532C133.632 22.9747 135.051 22.696 136.621 22.696C139.307 22.696 141.422 23.3673 142.967 24.71C144.513 26.0527 145.285 27.9527 145.285 30.41V42H141.143L140.687 38.96C140.13 39.9733 139.345 40.8093 138.331 41.468C137.343 42.1267 136.064 42.456 134.493 42.456ZM135.595 38.656C136.989 38.656 138.065 38.2 138.825 37.288C139.611 36.376 140.105 35.2487 140.307 33.906H136.165C134.873 33.906 133.949 34.1467 133.391 34.628C132.834 35.084 132.555 35.654 132.555 36.338C132.555 37.0727 132.834 37.6427 133.391 38.048C133.949 38.4533 134.683 38.656 135.595 38.656ZM149.927 50.36V23.152H154.259L154.791 25.85C155.399 25.014 156.197 24.2793 157.185 23.646C158.198 23.0127 159.503 22.696 161.099 22.696C162.872 22.696 164.456 23.1267 165.849 23.988C167.242 24.8493 168.344 26.0273 169.155 27.522C169.966 29.0167 170.371 30.714 170.371 32.614C170.371 34.514 169.966 36.2113 169.155 37.706C168.344 39.1753 167.242 40.3407 165.849 41.202C164.456 42.038 162.872 42.456 161.099 42.456C159.68 42.456 158.439 42.19 157.375 41.658C156.311 41.126 155.45 40.3787 154.791 39.416V50.36H149.927ZM160.073 38.2C161.618 38.2 162.898 37.6807 163.911 36.642C164.924 35.6033 165.431 34.2607 165.431 32.614C165.431 30.9673 164.924 29.612 163.911 28.548C162.898 27.484 161.618 26.952 160.073 26.952C158.502 26.952 157.21 27.484 156.197 28.548C155.209 29.5867 154.715 30.9293 154.715 32.576C154.715 34.2227 155.209 35.578 156.197 36.642C157.21 37.6807 158.502 38.2 160.073 38.2ZM183.874 42.456C181.974 42.456 180.289 42.0507 178.82 41.24C177.351 40.4293 176.198 39.2893 175.362 37.82C174.526 36.3507 174.108 34.6533 174.108 32.728C174.108 30.7773 174.513 29.042 175.324 27.522C176.16 26.002 177.3 24.824 178.744 23.988C180.213 23.1267 181.936 22.696 183.912 22.696C185.761 22.696 187.395 23.1013 188.814 23.912C190.233 24.7227 191.335 25.8373 192.12 27.256C192.931 28.6493 193.336 30.2073 193.336 31.93C193.336 32.2087 193.323 32.5 193.298 32.804C193.298 33.108 193.285 33.4247 193.26 33.754H178.934C179.035 35.2233 179.542 36.376 180.454 37.212C181.391 38.048 182.519 38.466 183.836 38.466C184.824 38.466 185.647 38.2507 186.306 37.82C186.99 37.364 187.497 36.7813 187.826 36.072H192.766C192.411 37.2627 191.816 38.352 190.98 39.34C190.169 40.3027 189.156 41.0627 187.94 41.62C186.749 42.1773 185.394 42.456 183.874 42.456ZM183.912 26.648C182.721 26.648 181.67 26.99 180.758 27.674C179.846 28.3327 179.263 29.346 179.01 30.714H188.396C188.32 29.4727 187.864 28.4847 187.028 27.75C186.192 27.0153 185.153 26.648 183.912 26.648ZM199.517 42.266C198.63 42.266 197.896 41.9873 197.313 41.43C196.756 40.8727 196.477 40.2013 196.477 39.416C196.477 38.6053 196.756 37.9213 197.313 37.364C197.896 36.8067 198.63 36.528 199.517 36.528C200.404 36.528 201.126 36.8067 201.683 37.364C202.266 37.9213 202.557 38.6053 202.557 39.416C202.557 40.2013 202.266 40.8727 201.683 41.43C201.126 41.9873 200.404 42.266 199.517 42.266ZM209.178 20.226C208.291 20.226 207.557 19.96 206.974 19.428C206.417 18.896 206.138 18.2247 206.138 17.414C206.138 16.6033 206.417 15.9447 206.974 15.438C207.557 14.906 208.291 14.64 209.178 14.64C210.065 14.64 210.787 14.906 211.344 15.438C211.927 15.9447 212.218 16.6033 212.218 17.414C212.218 18.2247 211.927 18.896 211.344 19.428C210.787 19.96 210.065 20.226 209.178 20.226ZM206.746 42V23.152H211.61V42H206.746ZM225.085 42C223.109 42 221.525 41.5187 220.335 40.556C219.144 39.5933 218.549 37.8833 218.549 35.426V27.218H215.319V23.152H218.549L219.119 18.098H223.413V23.152H228.505V27.218H223.413V35.464C223.413 36.376 223.603 37.0093 223.983 37.364C224.388 37.6933 225.072 37.858 226.035 37.858H228.391V42H225.085Z" fill="#F3F3F3"/>
<path fill-rule="evenodd" clip-rule="evenodd" d="M26 53C40.3594 53 52 41.1355 52 26.5C52 11.8645 40.3594 0 26 0C11.6406 0 0 11.8645 0 26.5C0 41.1355 11.6406 53 26 53ZM34.1111 12.3448C34.5059 10.9154 33.1449 10.0702 31.902 10.9727L14.551 23.5712C13.2031 24.55 13.4151 26.5 14.8695 26.5H19.4385V26.4639H28.3433L21.0876 29.0733L17.8889 40.6552C17.4941 42.0846 18.855 42.9299 20.098 42.0273L37.449 29.4289C38.7969 28.4501 38.5848 26.5 37.1305 26.5H30.2017L34.1111 12.3448Z" fill="#0066FF"/>
</svg>
